<?xml version="1.0" standalone="no"?>
<!DOCTYPE svg PUBLIC "-//W3C//DTD SVG 20010904//EN"
 "http://www.w3.org/TR/2001/REC-SVG-20010904/DTD/svg10.dtd">
<svg version="1.0" xmlns="http://www.w3.org/2000/svg"
 width="694.000000pt" height="603.000000pt" viewBox="0 0 694.000000 603.000000"
 preserveAspectRatio="xMidYMid meet">

<g transform="translate(0.000000,603.000000) scale(0.100000,-0.100000)"
fill="#000000" stroke="none">
<path d="M890 4549 c-476 -814 -869 -1488 -874 -1499 -7 -15 171 -333 849
-1523 l857 -1504 1676 -7 c923 -4 1702 -9 1732 -11 l55 -5 865 1480 c476 815
869 1489 874 1500 7 15 -167 327 -849 1523 l-857 1505 -1596 6 c-878 3 -1658
8 -1732 11 l-135 5 -865 -1481z m958 405 c128 -42 122 -34 122 -179 0 -69 -2
-125 -5 -125 -3 0 -35 10 -72 21 -129 42 -256 8 -300 -81 l-23 -44 0 -571 c0
-357 -4 -587 -11 -615 -30 -133 -136 -263 -261 -324 -69 -33 -70 -34 -40 -41
48 -10 167 -100 211 -158 22 -29 53 -79 68 -112 l28 -60 5 -600 c5 -582 6
-601 26 -635 46 -79 175 -110 307 -72 l67 19 0 -123 c0 -144 3 -139 -123 -179
-55 -18 -101 -25 -155 -25 -236 0 -409 133 -442 340 -6 39 -10 286 -10 610 0
300 -4 571 -10 603 -20 127 -92 225 -184 252 -27 8 -78 15 -113 15 l-63 0 0
145 0 145 80 0 c120 0 181 32 236 126 50 85 54 134 54 734 0 314 4 581 10 615
20 123 105 241 212 296 108 55 263 65 386 23z m3582 -3 c110 -44 189 -121 235
-229 19 -45 20 -79 26 -667 7 -658 7 -664 57 -760 26 -51 77 -100 124 -119 23
-10 68 -16 118 -16 l80 0 0 -145 0 -145 -62 0 c-123 -1 -193 -35 -247 -119
-63 -98 -64 -104 -70 -786 l-6 -620 -27 -57 c-33 -71 -102 -146 -166 -181
-136 -74 -323 -76 -474 -6 l-48 22 0 128 0 127 63 -20 c134 -42 270 -7 315 82
l22 44 0 573 c0 554 1 576 21 635 41 122 134 229 249 287 l60 29 -63 30 c-116
55 -208 162 -247 289 -19 62 -20 92 -20 642 l0 577 -22 44 c-45 89 -178 124
-305 81 -34 -12 -65 -21 -68 -21 -3 0 -5 58 -5 129 l0 129 53 22 c96 42 137
50 247 46 78 -3 119 -9 160 -25z m-1197 -1779 c295 -813 537 -1481 537 -1485
0 -4 -75 -6 -167 -5 l-166 3 -171 472 -171 473 -625 0 -625 0 -171 -473 -170
-472 -168 -3 c-133 -2 -167 0 -164 10 3 7 247 676 543 1486 l539 1472 221 0
222 0 536 -1478z"/>
<path d="M3202 3607 c-144 -397 -262 -725 -262 -729 0 -10 1060 -10 1060 0 0
14 -524 1452 -529 1452 -3 0 -124 -325 -269 -723z"/>
</g>
</svg>
